<svg xmlns="http://www.w3.org/2000/svg" data-name="Line Set" viewBox="0 0 100 125" x="0px" y="0px"><path d="M56.00121,97.53053a.7493.7493,0,0,1-.5957-.293l-12-15.59668a.75025.75025,0,0,1,0-.91406L55.05395,65.58718,43.40551,50.45046a.75025.75025,0,0,1,0-.91406L55.05395,34.39968,43.40551,19.26882a.75025.75025,0,0,1,0-.91406l12-15.5918A.75005.75005,0,1,1,56.595,3.677L44.94653,18.81178,56.595,33.94264a.75025.75025,0,0,1,0,.91406L44.94653,49.99343,56.595,65.13014a.75025.75025,0,0,1,0,.91406L44.94653,81.18385,56.595,96.3235a.75.75,0,0,1-.59375,1.207Z"/></svg>